<svg xmlns="http://www.w3.org/2000/svg" width="517" height="96" viewBox="0 0 517 96"><g fill="#FFF" fill-rule="evenodd"><path fill-rule="nonzero" d="M79.9622517 13.7264901C79.9622517 14.1 79.8377483 14.4631347 79.5887417 14.815894 79.3397351 15.1479029 78.9869757 15.3139073 78.5304636 15.3139073 78.1984547 15.3139073 77.9183223 15.2516556 77.6900662 15.1271523 77.4618102 15.0233996 77.2543046 14.8781457 77.0675497 14.6913907 75.8225166 13.8406181 74.5671082 12.9690949 73.3013245 12.0768212 72.0562914 11.205298 70.7697572 10.3545254 69.4417219 9.52450331 68.1344371 8.71523179 66.8064018 7.95783664 65.4576159 7.25231788 64.10883 6.54679912 62.7704194 5.95540839 61.4423841 5.4781457 59.3258278 4.79337748 57.0743929 4.25386313 54.6880795 3.85960265 52.301766 3.46534216 49.9777042 3.26821192 47.715894 3.26821192 43.6280353 3.26821192 39.6854305 3.79735099 35.8880795 4.85562914 32.0907285 5.91390728 28.5631347 7.40794702 25.305298 9.33774834 22.0267108 11.2675497 19.0386313 13.5812362 16.3410596 16.2788079 13.6434879 18.9763797 11.3401766 21.9748344 9.43112583 25.2741722 7.52207506 28.5735099 6.0384106 32.111479 4.98013245 35.8880795 3.9218543 39.6854305 3.39271523 43.6280353 3.39271523 47.715894 3.39271523 51.7415011 3.9218543 55.6218543 4.98013245 59.3569536 6.05916115 63.1128035 7.57395143 66.6300221 9.52450331 69.9086093 11.4750552 73.207947 13.799117 76.216777 16.4966887 78.9350993 19.215011 81.6534216 22.2238411 83.9774834 25.5231788 85.9072848 28.8225166 87.8578366 32.3397351 89.3726269 36.0748344 90.4516556 39.8099338 91.5306843 43.690287 92.0701987 47.715894 92.0701987 53.2147903 92.0701987 58.2986755 91.2298013 62.9675497 89.5490066 67.6571744 87.8889625 72.0666667 85.2951435 76.1960265 81.7675497 76.3620309 81.6015453 76.6732892 81.3421634 77.1298013 80.989404 77.5863135 80.6573951 77.9701987 80.4913907 78.281457 80.4913907 78.8002208 80.4913907 79.184106 80.6573951 79.4331126 80.989404 79.6821192 81.3006623 79.8066225 81.6637969 79.8066225 82.0788079 79.8066225 82.5145695 79.7443709 82.8362031 79.6198675 83.0437086 79.4746137 83.2512141 79.2671082 83.4898455 78.997351 83.7596026L78.997351 83.7284768C77.2543046 85.5960265 75.1169978 87.2560706 72.5854305 88.7086093 70.0331126 90.1611479 67.3459161 91.3854305 64.5238411 92.381457 61.6810155 93.398234 58.7966887 94.1660044 55.8708609 94.6847682 52.9242826 95.1827815 50.2059603 95.4317881 47.715894 95.4317881 43.4205298 95.4317881 39.2600442 94.8507726 35.2344371 93.6887417 31.20883 92.5267108 27.4218543 90.8977925 23.8735099 88.8019868 20.3459161 86.706181 17.1192053 84.1953642 14.1933775 81.2695364 11.2467991 78.3644592 8.72560706 75.1481236 6.62980132 71.6205298 4.53399558 68.0721854 2.90507726 64.2748344 1.74304636 60.2284768.581015453 56.2028698 1.76929847e-14 52.0320088 1.76929847e-14 47.715894 1.76929847e-14 43.3582781.570640177 39.1355408 1.71192053 35.0476821 2.85320088 30.980574 4.46136865 27.1728477 6.53642384 23.6245033 8.59072848 20.0969095 11.0807947 16.880574 14.0066225 13.9754967 16.9324503 11.0704194 20.1591611 8.59072848 23.686755 6.53642384 27.2143488 4.46136865 31.0116998 2.85320088 35.0788079 1.71192053 39.1251656.570640177 43.3375276 0 47.715894 0 50.5172185 0 53.3081678.269757174 56.0887417.809271523 58.8693157 1.32803532 61.587638 2.09580574 64.2437086 3.11258278 66.8790287 4.10860927 69.4209713 5.33289183 71.8695364 6.78543046 74.297351 8.23796909 76.5695364 9.88763797 78.6860927 11.7344371 79.2463576 12.1701987 79.6717439 12.7304636 79.9622517 13.4152318L79.9622517 13.7264901ZM212.309272 61.0377483C213.907064 62.0960265 215.80574 63.3618102 218.005298 64.8350993 220.184106 66.287638 222.528918 67.8543046 225.039735 69.5350993 227.550552 71.215894 230.144371 72.9485651 232.821192 74.7331126 235.498013 76.51766 238.112583 78.281457 240.664901 80.0245033 243.237969 81.7675497 245.676159 83.4275938 247.97947 85.0046358 250.282781 86.5609272 252.30596 87.9512141 254.049007 89.1754967 255.792053 90.3790287 257.192715 91.3750552 258.250993 92.1635762 259.309272 92.9520971 259.869536 93.4293598 259.931788 93.5953642 259.931788 94.114128 259.745033 94.5706402 259.371523 94.9649007 258.998013 95.3591611 258.572627 95.5562914 258.095364 95.5562914 258.012362 95.5562914 257.493598 95.2450331 256.539073 94.6225166 255.584547 94 254.308389 93.1596026 252.710596 92.1013245 251.112804 91.0222958 249.234879 89.7668874 247.076821 88.3350993 244.918764 86.9240618 242.636203 85.4092715 240.229139 83.7907285 237.801325 82.1721854 235.280132 80.4810155 232.665563 78.7172185 230.050993 76.9741722 227.46755 75.2415011 224.915232 73.5192053 222.342163 71.81766 219.872848 70.1783664 217.507285 68.6013245 215.141722 67.003532 212.983664 65.5406181 211.033113 64.2125828L203.500662 59.1390728 203.407285 59.1390728 203.562914 59.2324503C203.251656 59.0249448 202.981898 58.8174393 202.753642 58.6099338 202.546137 58.3816777 202.442384 58.0289183 202.442384 57.5516556 202.442384 56.9083885 202.84702 56.4830022 203.656291 56.2754967 204.486313 56.0679912 205.440839 55.9642384 206.519868 55.9642384 207.246137 55.9642384 207.993157 55.9953642 208.760927 56.0576159 209.528698 56.099117 210.151214 56.1406181 210.628477 56.1821192 210.856733 56.2028698 211.053863 56.213245 211.219868 56.213245 211.365121 56.213245 211.468874 56.213245 211.531126 56.213245 212.589404 56.213245 213.720309 56.2028698 214.923841 56.1821192 216.127373 56.1406181 217.34128 56.099117 218.565563 56.0576159 219.789845 55.9953642 221.003753 55.912362 222.207285 55.8086093 223.390066 55.7048565 224.510596 55.5699779 225.568874 55.4039735 228.847461 54.7607064 231.81479 53.7231788 234.470861 52.2913907 237.106181 50.8803532 239.357616 49.106181 241.225166 46.9688742 243.071965 44.8523179 244.503753 42.3830022 245.52053 39.5609272 246.516556 36.7388521 247.01457 33.6262693 247.01457 30.2231788 247.01457 27.2143488 246.589183 24.3611479 245.738411 21.6635762 244.887638 18.9660044 243.663355 16.5381898 242.065563 14.3801325 240.44702 12.2013245 238.475717 10.3337748 236.151656 8.77748344 233.806843 7.22119205 231.130022 6.11103753 228.121192 5.44701987 226.004636 4.96975717 223.888079 4.67924945 221.771523 4.57549669 219.634216 4.47174393 217.51766 4.41986755 215.421854 4.41986755L187.066225 4.41986755 187.066225 93.5953642C187.066225 94.1348786 186.900221 94.5810155 186.568212 94.9337748 186.215453 95.2657837 185.790066 95.4317881 185.292053 95.4317881 184.711038 95.4317881 184.275276 95.2450331 183.984768 94.8715232 183.715011 94.4980132 183.580132 94.0726269 183.580132 93.5953642L183.580132 2.83245033C183.580132 2.41743929 183.683885 2.08543046 183.891391 1.83642384 184.098896 1.56666667 184.347903 1.3799117 184.638411 1.27615894 184.928918 1.15165563 185.240177 1.05827815 185.572185.99602649 185.883444.954525386 186.163576.933774834 186.412583.933774834L216.760265.933774834C221.512141.933774834 225.921634 1.49403974 229.988742 2.61456954 234.0766 3.73509934 237.63532 5.48852097 240.664901 7.87483444 243.673731 10.2403974 246.039294 13.2699779 247.761589 16.9635762 249.483885 20.6364238 250.345033 25.0562914 250.345033 30.2231788 250.345033 33.8960265 249.898896 37.1746137 249.006623 40.0589404 248.093598 42.9432671 246.827815 45.4852097 245.209272 47.6847682 243.590728 49.9050773 241.671302 51.7830022 239.450993 53.318543 237.230684 54.8540839 234.80287 56.099117 232.16755 57.0536424 229.511479 58.0081678 226.699779 58.7033113 223.73245 59.1390728 220.765121 59.5748344 217.725166 59.7927152 214.612583 59.7927152 214.031567 59.7927152 213.58543 59.8030905 213.274172 59.8238411 212.983664 59.8445916 212.713907 59.8549669 212.464901 59.8549669 212.236645 59.8549669 211.977263 59.8549669 211.686755 59.8549669 211.396247 59.8549669 210.939735 59.8238411 210.317219 59.7615894L212.309272 61.0377483ZM338.680132 56.8980132C338.680132 59.2428256 338.534879 61.7121413 338.244371 64.3059603 337.953863 66.8997792 337.445475 69.3587196 336.719205 71.6827815 335.39117 75.2933775 333.430243 78.58234 330.836424 81.5496689 328.242605 84.4962472 325.285651 87.007064 321.965563 89.0821192 318.624724 91.1779249 315.066004 92.796468 311.289404 93.9377483 307.492053 95.0790287 303.736203 95.6496689 300.021854 95.6496689 296.266004 95.6496689 292.489404 95.089404 288.692053 93.9688742 284.873951 92.8690949 281.315232 91.2816777 278.015894 89.2066225 274.737307 87.1523179 271.811479 84.6518764 269.238411 81.705298 266.644592 78.7379691 264.704415 75.3971302 263.417881 71.6827815 262.62936 69.3379691 262.089845 66.889404 261.799338 64.3370861 261.50883 61.7847682 261.363576 59.3050773 261.363576 56.8980132L261.363576 2.30331126C261.363576 1.80529801 261.539956 1.3799117 261.892715 1.02715232 262.224724.695143488 262.660486.529139073 263.2.529139073 263.864018.529139073 264.299779.695143488 264.507285 1.02715232 264.735541 1.3799117 264.849669 1.80529801 264.849669 2.30331126L264.849669 56.586755C264.849669 58.8693157 264.984547 61.2556291 265.254305 63.7456954 265.524062 66.2357616 266.001325 68.5909492 266.686093 70.8112583 267.848124 74.1935982 269.601545 77.2128035 271.946358 79.8688742 274.270419 82.5456954 276.936865 84.8075055 279.945695 86.6543046 282.954525 88.5218543 286.191611 89.9432671 289.656954 90.918543 293.122296 91.893819 296.577263 92.381457 300.021854 92.381457 303.507947 92.381457 306.99404 91.9041943 310.480132 90.9496689 313.945475 89.9743929 317.192936 88.5737307 320.222517 86.7476821 323.231347 84.9216336 325.908168 82.680574 328.25298 80.0245033 330.597792 77.3684327 332.330464 74.3181015 333.450993 70.8735099 334.239514 68.6116998 334.747903 66.2668874 334.976159 63.8390728 335.225166 61.3905077 335.349669 58.9730684 335.349669 56.586755L335.349669 2.30331126C335.349669 1.80529801 335.505298 1.3799117 335.816556 1.02715232 336.127815.695143488 336.553201.529139073 337.092715.529139073 337.777483.529139073 338.213245.684768212 338.4.99602649 338.586755 1.32803532 338.680132 1.76379691 338.680132 2.30331126L338.680132 56.8980132ZM342.197351 78.4059603C342.197351 77.9286976 342.394481 77.5136865 342.788742 77.1609272 343.183002 76.8289183 343.64989 76.6629139 344.189404 76.6629139 344.562914 76.8289183 344.843046 77.005298 345.029801 77.192053 345.237307 77.3788079 345.434437 77.5863135 345.621192 77.8145695 347.613245 80.2838852 349.999558 82.4211921 352.780132 84.2264901 355.560706 86.0317881 358.528035 87.5362031 361.682119 88.7397351 364.836203 89.9225166 368.083664 90.804415 371.424503 91.3854305 374.744592 91.9664459 377.919426 92.2569536 380.949007 92.2569536 383.356071 92.2569536 385.815011 92.080574 388.325828 91.7278146 390.857395 91.3750552 393.347461 90.8251656 395.796026 90.0781457 398.223841 89.3103753 400.527152 88.3247241 402.70596 87.1211921 404.864018 85.91766 406.762693 84.4547461 408.401987 82.7324503 410.04128 81.0309051 411.33819 79.0596026 412.292715 76.818543 413.247241 74.598234 413.724503 72.0666667 413.724503 69.2238411 413.724503 66.8375276 413.371744 64.7209713 412.666225 62.8741722 411.939956 61.0273731 410.96468 59.3984547 409.740397 57.9874172 408.516115 56.5763797 407.063576 55.3520971 405.382781 54.3145695 403.701987 53.2977925 401.917439 52.4262693 400.029139 51.7 398.140839 50.9529801 396.169536 50.3408389 394.115232 49.8635762 392.060927 49.3863135 390.048124 49.0024283 388.076821 48.7119205 386.977042 48.5251656 385.835762 48.3695364 384.65298 48.2450331 383.449448 48.0997792 382.21479 47.9441501 380.949007 47.7781457 378.500442 47.5083885 375.968874 47.1763797 373.354305 46.7821192 370.739735 46.3878587 368.177042 45.8587196 365.666225 45.194702 363.176159 44.5306843 360.810596 43.6799117 358.569536 42.6423841 356.328477 41.584106 354.36755 40.2664459 352.686755 38.689404 351.026711 37.0916115 349.698675 35.1825607 348.702649 32.9622517 347.706623 30.7211921 347.208609 28.085872 347.208609 25.0562914 347.208609 22.1719647 347.654746 19.5573951 348.54702 17.2125828 349.439294 14.8470199 350.663576 12.7512141 352.219868 10.9251656 353.776159 9.099117 355.581457 7.51169978 357.635762 6.16291391 359.710817 4.81412804 361.931126 3.70397351 364.296689 2.83245033 366.662252 1.9401766 369.121192 1.27615894 371.67351.840397351 374.205077.425386313 376.715894.217880795 379.20596.217880795 384.310596.217880795 389.135099.892273731 393.67947 2.2410596 398.244592 3.58984547 402.591832 5.7790287 406.721192 8.80860927L406.65894 8.80860927C406.804194 8.87086093 407.094702 9.07836645 407.530464 9.43112583 407.986976 9.76313466 408.453863 10.1470199 408.931126 10.5827815 409.429139 10.9977925 409.864901 11.4543046 410.238411 11.9523179 410.611921 12.4503311 410.798675 12.8860927 410.798675 13.2596026 410.798675 13.7368653 410.643046 14.1103753 410.331788 14.3801325 409.999779 14.6706402 409.615894 14.815894 409.180132 14.815894 408.70287 14.815894 408.32936 14.7225166 408.059603 14.5357616 407.810596 14.3697572 407.551214 14.1726269 407.281457 13.9443709L407.343709 13.9443709C405.496909 12.1183223 403.473731 10.5516556 401.274172 9.24437086 399.053863 7.93708609 396.750552 6.8580574 394.364238 6.00728477 391.957174 5.15651214 389.477483 4.52362031 386.925166 4.10860927 384.393598 3.69359823 381.862031 3.48609272 379.330464 3.48609272 377.172406 3.48609272 374.962472 3.66247241 372.700662 4.01523179 370.418102 4.38874172 368.218543 4.9593819 366.101987 5.72715232 363.98543 6.49492274 361.983002 7.4598234 360.094702 8.6218543 358.206402 9.76313466 356.556733 11.1326711 355.145695 12.7304636 353.755408 14.3075055 352.645254 16.1231788 351.815232 18.1774834 351.00596 20.2317881 350.601325 22.5039735 350.601325 24.9940397 350.601325 27.6501104 351.057837 29.9430464 351.970861 31.8728477 352.863135 33.802649 354.087417 35.4523179 355.643709 36.8218543 357.2 38.1913907 359.005298 39.3119205 361.059603 40.1834437 363.093157 41.0549669 365.251214 41.7604857 367.533775 42.3 369.837086 42.8395143 372.171523 43.2752759 374.537086 43.6072848 376.902649 43.918543 379.195585 44.1986755 381.415894 44.4476821L387.454305 45.2258278C389.819868 45.5578366 392.18543 45.9935982 394.550993 46.5331126 396.916556 47.0518764 399.199117 47.7262693 401.398675 48.5562914 403.577483 49.3655629 405.621413 50.3615894 407.530464 51.5443709 409.439514 52.7271523 411.099558 54.1381898 412.510596 55.7774834 413.942384 57.4375276 415.062914 59.3673289 415.872185 61.5668874 416.702208 63.7664459 417.117219 66.2980132 417.117219 69.1615894 417.117219 72.5231788 416.577704 75.5112583 415.498675 78.1258278 414.419647 80.7196468 412.956733 83.0022075 411.109934 84.9735099 409.263135 86.9240618 407.115453 88.584106 404.666887 89.9536424 402.218322 91.3231788 399.603753 92.4229581 396.823179 93.2529801 394.063355 94.1037528 391.22053 94.715894 388.294702 95.089404 385.389625 95.4629139 382.56755 95.6496689 379.828477 95.6496689 376.861148 95.6496689 373.904194 95.4214128 370.957616 94.9649007 368.011038 94.5291391 365.137086 93.8443709 362.335762 92.910596 359.534437 91.9768212 356.847241 90.7836645 354.274172 89.3311258 351.680353 87.8785872 349.262914 86.1562914 347.021854 84.1642384L346.554967 83.8218543 346.617219 83.8218543C345.766446 83.095585 344.946799 82.3381898 344.158278 81.5496689 343.369757 80.7403974 342.736865 79.785872 342.259603 78.6860927L342.197351 78.4059603Z"/><path d="M421.630464,47.715894 C421.630464,43.316777 422.190728,39.0732892 423.311258,34.9854305 C424.431788,30.9183223 426.029581,27.1209713 428.104636,23.5933775 C430.15894,20.0450331 432.638631,16.8286976 435.543709,13.9443709 C438.448786,11.0392936 441.665121,8.54922737 445.192715,6.47417219 C448.720309,4.41986755 452.528035,2.82207506 456.615894,1.6807947 C460.683002,0.560264901 464.92649,3.53859694e-14 469.346358,3.53859694e-14 C473.766225,3.53859694e-14 478.020088,0.560264901 482.107947,1.6807947 C486.195806,2.82207506 490.003532,4.40949227 493.531126,6.44304636 C497.05872,8.49735099 500.26468,10.9770419 503.149007,13.8821192 C506.033333,16.7871965 508.502649,20.003532 510.556954,23.5311258 C512.590508,27.0587196 514.177925,30.8664459 515.319205,34.9543046 C516.439735,39.0214128 517,43.2752759 517,47.715894 C517,52.115011 516.42936,56.3481236 515.288079,60.4152318 C514.146799,64.48234 512.538631,68.2796909 510.463576,71.8072848 C508.409272,75.3348786 505.929581,78.5512141 503.024503,81.4562914 C500.119426,84.3613687 496.903091,86.8514349 493.375497,88.9264901 C489.847903,90.9807947 486.050552,92.5785872 481.983444,93.7198675 C477.916336,94.8611479 473.703974,95.4317881 469.346358,95.4317881 C464.967991,95.4317881 460.755629,94.8611479 456.709272,93.7198675 C452.662914,92.5785872 448.875938,90.9600442 445.348344,88.8642384 C441.820751,86.7684327 438.59404,84.2576159 435.668212,81.3317881 C432.742384,78.4059603 430.241943,75.1792494 428.166887,71.6516556 C426.091832,68.1240618 424.483664,64.3370861 423.342384,60.2907285 C422.201104,56.2443709 421.630464,52.0527594 421.630464,47.715894 L421.630464,47.715894 Z M424.992053,47.715894 C424.992053,51.7415011 425.521192,55.6426049 426.57947,59.4192053 C427.637748,63.1958057 429.142163,66.7233996 431.092715,70.0019868 C433.043267,73.280574 435.367329,76.2686534 438.064901,78.9662252 C440.783223,81.6845475 443.781678,84.0086093 447.060265,85.9384106 C450.338852,87.8682119 453.866446,89.3726269 457.643046,90.4516556 C461.398896,91.5306843 465.3,92.0701987 469.346358,92.0701987 C473.434216,92.0701987 477.366446,91.5410596 481.143046,90.4827815 C484.898896,89.4245033 488.416115,87.9304636 491.694702,86.0006623 C494.973289,84.0708609 497.950993,81.7571744 500.627815,79.0596026 C503.325386,76.3620309 505.639073,73.3739514 507.568874,70.0953642 C509.477925,66.816777 510.961589,63.2891832 512.019868,59.5125828 C513.057395,55.7152318 513.576159,51.7830022 513.576159,47.715894 C513.576159,43.5865342 513.057395,39.6231788 512.019868,35.8258278 C511.003091,32.0077263 509.550552,28.4593819 507.662252,25.1807947 C505.773951,21.881457 503.481015,18.8830022 500.783444,16.1854305 C498.106623,13.4878587 495.128918,11.1845475 491.850331,9.27549669 C488.571744,7.36644592 485.04415,5.89315673 481.26755,4.85562914 C477.470199,3.79735099 473.496468,3.26821192 469.346358,3.26821192 C465.237748,3.26821192 461.295143,3.79735099 457.518543,4.85562914 C453.762693,5.91390728 450.235099,7.4183223 446.935762,9.36887417 C443.636424,11.319426 440.637969,13.6538631 437.940397,16.3721854 C435.242826,19.0905077 432.939514,22.0785872 431.030464,25.3364238 C429.121413,28.615011 427.637748,32.1529801 426.57947,35.9503311 C425.521192,39.7476821 424.992053,43.6695364 424.992053,47.715894 L424.992053,47.715894 Z"/><g fill-rule="nonzero" transform="translate(81.02 .53)"><path d="M95.3695364,90.7940397 C94.5602649,89.1754967 93.4604857,86.9863135 92.0701987,84.2264901 C90.6591611,81.4459161 89.0302428,78.1984547 87.1834437,74.484106 C85.315894,70.7697572 83.3238411,66.8064018 81.2072848,62.5940397 C79.0907285,58.4024283 76.9119205,54.0655629 74.6708609,49.5834437 C72.4090508,45.080574 70.1887417,40.6710817 68.0099338,36.3549669 C65.8103753,32.0388521 63.7145695,27.9094923 61.7225166,23.9668874 C59.7304636,20.0242826 57.9459161,16.4863135 56.3688742,13.3529801 C54.7710817,10.2196468 53.4430464,7.59470199 52.3847682,5.4781457 C51.3264901,3.38233996 50.6417219,2.03355408 50.3304636,1.43178808 L50.3927152,1.46291391 C50.2267108,1.08940397 49.9777042,0.747019868 49.6456954,0.435761589 C49.3136865,0.145253863 48.8779249,0 48.3384106,0 C47.902649,0 47.5498896,0.166004415 47.2801325,0.498013245 C47.0311258,0.850772627 46.8754967,1.14128035 46.813245,1.36953642 L46.8443709,1.30728477 L15.2516556,63.1231788 L14.3490066,65.084106 C13.8821192,65.8 14.0688742,65.4264901 13.5708609,66.4536424 L11.4231788,70.6556291 C10.7384106,71.9836645 9.98101545,73.4569536 9.15099338,75.0754967 C8.3209713,76.6940397 7.47019868,78.3333333 6.5986755,79.9933775 C5.74790287,81.6534216 4.93863135,83.2719647 4.17086093,84.8490066 C3.38233996,86.4467991 2.67682119,87.8578366 2.05430464,89.0821192 C1.43178808,90.3064018 0.933774834,91.3128035 0.560264901,92.1013245 C0.186754967,92.8898455 0,93.3152318 0,93.3774834 C0,93.8962472 0.186754967,94.3112583 0.560264901,94.6225166 C0.913024283,94.9545254 1.32803532,95.1205298 1.80529801,95.1205298 C2.01280353,95.1205298 2.27218543,94.9960265 2.58344371,94.7470199 C2.91545254,94.4772627 3.13333333,94.2593819 3.23708609,94.0933775 L17.2748344,66.4536424 L17.3682119,66.1735099 C17.4927152,65.8311258 17.3993377,66.1423841 17.6172185,65.8 C17.4927152,65.9245033 17.710596,65.6443709 17.6172185,65.8 L19.0178808,63.1231788 L48.4317881,5.16688742 L77.5655629,63.1231788 L78.0013245,63.9324503 C78.2503311,64.3059603 78.094702,63.8701987 78.2503311,64.3059603 C78.3125828,64.3682119 78.4059603,64.4304636 78.4370861,64.5238411 C78.8728477,65.084106 78.6860927,64.8662252 78.8728477,65.5509934 L79.3086093,66.4536424 C79.4746137,66.7233996 79.6717439,67.1072848 79.9,67.605298 C80.1282561,68.1033113 80.4498896,68.7880795 80.8649007,69.6596026 C81.5081678,71.0083885 82.2551876,72.5439294 83.1059603,74.2662252 C83.9567329,76.0092715 84.8490066,77.8041943 85.7827815,79.6509934 C86.7373068,81.4977925 87.681457,83.3238411 88.6152318,85.1291391 C89.5490066,86.9344371 90.4205298,88.5633554 91.2298013,90.015894 C92.0183223,91.4684327 92.7134658,92.6615894 93.3152318,93.5953642 C93.9169978,94.5498896 94.3320088,95.0790287 94.5602649,95.1827815 C95.1412804,95.1827815 95.618543,94.9856512 95.992053,94.5913907 C96.3863135,94.1971302 96.5834437,93.7613687 96.5834437,93.284106 C96.5834437,93.2426049 96.1788079,92.4125828 95.3695364,90.7940397 L95.3695364,90.7940397 Z"/><path d="M85.3470199,91.105298 C84.5377483,89.486755 83.4379691,87.2975717 82.0476821,84.5377483 C80.6366446,81.7571744 79.0077263,78.509713 77.1609272,74.7953642 C75.2933775,71.0810155 73.3013245,67.11766 71.1847682,62.905298 C69.0682119,58.7136865 66.8790287,54.3768212 64.6172185,49.894702 C62.3761589,45.3918322 60.1662252,40.98234 57.9874172,36.6662252 C55.7878587,32.3501104 53.692053,28.2207506 51.7,24.2781457 C49.707947,20.3355408 47.9130243,16.7975717 46.3152318,13.6642384 C45.6615894,12.3880795 45.0701987,11.205298 44.5099338,10.0847682 C43.918543,10.8317881 43.0470199,11.4231788 41.8953642,11.7344371 C41.7916115,11.7551876 41.698234,11.7863135 41.6152318,11.8278146 L67.5430464,63.4344371 L67.9476821,64.2437086 C68.2278146,64.6172185 68.0721854,64.181457 68.2278146,64.6172185 C68.2589404,64.6794702 68.3834437,64.7417219 68.4145695,64.8350993 C68.8503311,65.3953642 68.6635762,65.1774834 68.8503311,65.8933775 L69.2860927,66.7649007 C69.4520971,67.0346578 69.6492274,67.418543 69.8774834,67.9165563 C70.1057395,68.4145695 70.4169978,69.0993377 70.8112583,69.9708609 C71.4752759,71.3196468 72.2326711,72.8551876 73.0834437,74.5774834 C73.9342163,76.3205298 74.8264901,78.1154525 75.7602649,79.9622517 C76.6940397,81.8090508 77.6381898,83.6350993 78.5927152,85.4403974 C79.5264901,87.2456954 80.387638,88.8746137 81.1761589,90.3271523 C81.9854305,91.7796909 82.6909492,92.9728477 83.2927152,93.9066225 C83.8944812,94.8611479 84.3094923,95.390287 84.5377483,95.4940397 C85.1187638,95.4940397 85.5960265,95.2969095 85.9695364,94.902649 C86.3430464,94.5083885 86.5298013,94.0726269 86.5298013,93.5953642 C86.5298013,93.5538631 86.1355408,92.7238411 85.3470199,91.105298 L85.3470199,91.105298 Z"/></g></g></svg>